<svg width="35" height="35" viewBox="0 0 35 35" fill="none" xmlns="http://www.w3.org/2000/svg">
<path fill-rule="evenodd" clip-rule="evenodd" d="M6.56234 13.1287C5.75661 13.1287 5.104 13.7813 5.104 14.5871V20.4204C5.104 21.2254 5.75661 21.8787 6.56234 21.8787H11.0285C12.5853 23.5452 13.7679 24.7606 14.5763 25.525C15.3481 26.2548 15.5671 26.2547 15.6882 26.2547C16.5085 26.2547 16.7707 25.6011 16.7707 24.7954V10.2121C16.7707 9.40706 16.5069 8.75372 15.6882 8.75372C15.5505 8.75372 15.3511 8.65413 14.6075 9.44304C14.1561 9.922 12.948 11.1506 10.9833 13.1287H6.56234ZM24.6664 29.8955C28.5967 27.9049 31.3544 23.2688 31.3544 17.8643C31.3544 12.4611 28.5967 7.82363 24.6664 5.83301V8.21958C27.5219 10.1438 29.4425 13.743 29.4425 17.8643C29.4425 21.9855 27.5219 25.5832 24.6664 27.5104V29.8955ZM20.3666 11.8669C22.094 13.2129 23.2322 15.5061 23.2322 18.1063C23.2322 20.708 22.094 22.9998 20.3666 24.3473V26.0134C23.1578 24.7658 25.1448 21.5867 25.1448 17.8643C25.1448 14.1404 23.1578 10.9627 20.3666 9.71509V11.8669Z" fill="current"/>
</svg>
