<svg width="35" height="35" viewBox="0 0 35 35" fill="none" xmlns="http://www.w3.org/2000/svg">
<path d="M34.3814 9.21012H34.3503C33.7509 9.21395 33.6579 8.69332 33.6475 8.4516V4.67105C33.6475 4.26746 33.3205 3.94043 32.918 3.94043H22.109C19.3971 3.94043 18.3853 4.94559 18.1343 5.26113L18.0654 5.35684L18.0649 5.35848L17.851 5.6516C17.5639 6.0459 17.3135 5.87801 17.1931 5.74895L16.7841 5.23871L16.5817 4.9948C16.2416 4.6377 15.3551 3.94043 13.598 3.94043H2.08244C1.67885 3.94043 1.35182 4.26746 1.35182 4.67105V8.40348C1.35182 9.05699 0.996895 9.18824 0.779238 9.21012H0.617363C0.440176 9.22105 0.027832 9.32387 0.027832 10.0824V27.8717C0.027832 28.3081 0.38166 28.6614 0.818066 28.6614H11.3279C14.6808 28.6614 16.1421 29.9257 16.5801 30.4108L16.83 30.7204C16.83 30.7204 17.501 31.4789 18.2076 30.7204L18.3542 30.5486L18.3563 30.5475L18.5434 30.3288C18.5488 30.3222 18.5937 30.2719 18.6588 30.2052C19.2182 29.6611 20.6166 28.6614 23.351 28.6614H34.1818C34.6188 28.6614 34.9721 28.3081 34.9721 27.8717V9.91012C34.9721 9.26699 34.5067 9.2134 34.3814 9.21012ZM32.02 25.0804C32.02 25.431 31.7274 25.7137 31.3632 25.7137H22.4519C19.2806 25.7137 18.1294 27.1465 18.1294 27.1465L17.9834 27.3423L17.915 27.4369C17.6126 27.8476 17.1674 27.4402 17.1653 27.438L16.9602 27.1815C16.8081 26.9989 15.6433 25.7132 12.8242 25.7132H3.63666C3.27408 25.7132 2.98096 25.4299 2.98096 25.0799V6.1241C2.98096 5.7741 3.27408 5.49082 3.63666 5.49082H10.7696C16.0753 5.49082 16.5779 8.50465 16.6124 9.3802V22.5632C16.6124 23.5213 17.069 23.7012 17.3266 23.7275H17.7099C17.9724 23.7012 18.3897 23.5454 18.3897 22.7978V9.21012H18.3853C18.4247 8.11363 18.8524 5.49027 22.0434 5.49027H31.3632C31.7274 5.49027 32.02 5.77355 32.02 6.12355V25.0804Z" fill="current"/>
</svg>
