<svg width="35" height="35" viewBox="0 0 35 35" fill="none" xmlns="http://www.w3.org/2000/svg">
<path d="M34.2668 17.0313H33.5832H22.7786C22.381 17.0313 22.7786 16.6638 22.7786 16.6638L22.7742 16.6622C22.9557 16.4954 23.0985 16.3406 23.2018 16.2241C25.0355 13.8036 23.4725 10.2003 23.2325 9.68293C22.3755 8.1752 21.3332 7.34668 20.2864 6.9245C20.2055 6.89442 20.1268 6.86653 20.0321 6.82715C19.5607 6.6527 19.0106 6.4859 18.4025 6.36067C15.7403 5.96254 13.2175 7.20887 13.1957 7.21981C10.8944 8.5334 5.02371 11.9875 2.40254 14.4911C2.27457 14.6108 2.14879 14.7355 2.02684 14.8668C1.93059 14.9685 1.84199 15.0675 1.75887 15.1643C1.73699 15.1911 1.71348 15.2146 1.6927 15.2419C1.61504 15.3371 1.54231 15.4306 1.47777 15.5214L1.49527 15.5132C0.981759 16.2159 0.561759 17.0493 0.303087 18.0583C-0.528163 20.6757 0.364337 26.5239 5.28785 28.368C5.50606 28.4397 6.45816 28.7191 7.88824 28.7191H20.7212H21.3731C21.8401 28.7005 22.9607 28.5485 24.0364 27.5887C24.0364 27.5887 24.0364 27.5876 24.038 27.5871L34.0726 18.6129L34.3608 18.3558C35.7854 17.08 34.2668 17.0313 34.2668 17.0313ZM30.8373 19.5272L23.7843 25.9361C22.69 26.9292 21.53 27.1042 21.0132 27.1288H7.57379C6.51941 27.1288 5.40871 26.7389 5.30863 26.7033C4.98051 26.5447 4.63434 26.3577 4.28488 26.1329C0.434884 23.6682 1.59043 18.9618 1.77801 18.2902C1.78238 18.2787 1.78457 18.2683 1.7884 18.2568C1.79715 18.224 1.80426 18.2022 1.80426 18.2022H1.80262C2.63113 15.581 4.58184 13.6718 8.25356 13.5608C8.71238 13.5696 10.0407 13.6773 11.2225 14.5731C11.5135 14.8115 11.8039 15.0888 12.0888 15.4257C12.6521 16.1536 13.9596 18.2732 13.3641 20.7232C12.8839 22.3294 12.1883 23.024 11.2291 23.6698C10.2688 24.3162 8.36512 24.9118 6.57629 23.8186C5.53449 23.106 4.73988 21.8821 4.88809 20.2589C5.03738 18.6358 6.70973 17.4611 8.19887 17.8089C9.6891 18.1562 10.5668 20.3913 8.96012 21.2854C8.20324 21.607 7.74606 21.4161 7.44637 21.0065L7.44582 21.0082C7.44582 21.0082 7.01488 20.6068 6.46856 20.8545C5.92715 21.1011 6.10106 21.8711 6.10379 21.8837C6.69387 22.7511 7.82754 23.4007 9.52723 22.8008C9.91879 22.6625 10.2376 22.4464 10.5029 22.1861L10.5067 22.1867C10.5067 22.1867 10.5329 22.1593 10.569 22.1211C10.6264 22.0609 10.6811 21.9975 10.7331 21.9318C11.3182 21.2111 12.6914 19.0432 10.5067 16.5927C9.23246 15.5728 5.28785 14.4757 3.63957 18.8743C3.57832 19.0192 3.52363 19.1685 3.47606 19.326C3.4684 19.3484 3.4602 19.3664 3.45254 19.3889C3.45418 19.39 3.45418 19.3889 3.45527 19.39C3.16598 20.3858 3.16707 21.6026 3.76262 22.9572C5.08715 25.9705 8.91035 26.7804 11.6918 25.2913C12.196 25.0211 12.6521 24.6875 13.0573 24.3042L13.0551 24.3075L19.7762 19.0356C19.7762 19.0356 20.246 18.6112 20.9668 18.6112H30.8236C31.7829 18.6112 30.9505 19.4206 30.8373 19.5272Z" fill="current"/>
</svg>
