<svg width="33" height="33" viewBox="0 0 33 33" fill="none" xmlns="http://www.w3.org/2000/svg">
<g clip-path="url(#clip0_198_98)">
<path d="M17.5312 17.5312C17.8048 17.5312 18.0671 17.6399 18.2605 17.8333C18.4539 18.0267 18.5625 18.289 18.5625 18.5625C18.5625 19.1095 18.3452 19.6341 17.9584 20.0209C17.5716 20.4077 17.047 20.625 16.5 20.625C16.0932 20.6267 15.6902 20.5478 15.3141 20.393C14.9379 20.2381 14.5962 20.0103 14.3086 19.7227C14.021 19.435 13.7931 19.0933 13.6383 18.7172C13.4834 18.3411 13.4045 17.938 13.4062 17.5312C13.4062 16.4372 13.8408 15.388 14.6144 14.6144C15.388 13.8408 16.4372 13.4063 17.5312 13.4062C18.8988 13.4063 20.2103 13.9495 21.1773 14.9165C22.1443 15.8835 22.6875 17.195 22.6875 18.5625C22.6875 20.2035 22.0356 21.7773 20.8752 22.9377C19.7148 24.0981 18.141 24.75 16.5 24.75C14.5855 24.75 12.7494 23.9895 11.3956 22.6357C10.0418 21.2819 9.28125 19.4458 9.28125 17.5312C9.28466 15.3443 10.1549 13.2478 11.7014 11.7014C13.2478 10.1549 15.3443 9.28466 17.5312 9.28125C19.9928 9.28125 22.3535 10.2591 24.0941 11.9997C25.8347 13.7402 26.8125 16.101 26.8125 18.5625C26.8125 19.9168 26.5458 21.2578 26.0275 22.5089C25.5093 23.7601 24.7496 24.8969 23.792 25.8545C22.8344 26.8121 21.6976 27.5718 20.4464 28.09C19.1953 28.6083 17.8543 28.875 16.5 28.875C13.4915 28.875 10.6061 27.6799 8.47876 25.5525C6.35139 23.4251 5.15625 20.5398 5.15625 17.5312C5.15625 14.2492 6.46004 11.1016 8.7808 8.7808C11.1016 6.46004 14.2492 5.15625 17.5312 5.15625C19.2918 5.15625 21.0351 5.50301 22.6616 6.17674C24.2881 6.85047 25.766 7.83796 27.0109 9.08285C28.2558 10.3277 29.2433 11.8056 29.917 13.4321C30.5907 15.0587 30.9375 16.802 30.9375 18.5625" stroke="current" stroke-width="2" stroke-linecap="round" stroke-linejoin="round"/>
</g>
<defs>
<clipPath id="clip0_198_98">
<rect width="33" height="33" fill="white"/>
</clipPath>
</defs>
</svg>
