<?xml version="1.0" ?><!DOCTYPE svg  PUBLIC '-//W3C//DTD SVG 1.1//EN'  'http://www.w3.org/Graphics/SVG/1.1/DTD/svg11.dtd'><svg enable-background="new 0 0 64 64" height="64px" id="Layer_1" version="1.1" viewBox="0 0 64 64" width="64px" xml:space="preserve" xmlns="http://www.w3.org/2000/svg" xmlns:xlink="http://www.w3.org/1999/xlink"><path d="M62.659,31.143h-1.25H41.652c-0.727,0,0-0.672,0-0.672l-0.008-0.003c0.332-0.305,0.593-0.588,0.782-0.801  c3.353-4.426,0.495-11.015,0.056-11.961c-1.567-2.757-3.473-4.272-5.387-5.044c-0.148-0.055-0.292-0.106-0.465-0.178  c-0.862-0.319-1.868-0.624-2.98-0.853c-4.868-0.728-9.481,1.551-9.521,1.571C19.921,15.604,9.186,21.92,4.393,26.498  c-0.234,0.219-0.464,0.447-0.687,0.687c-0.176,0.186-0.338,0.367-0.49,0.544c-0.04,0.049-0.083,0.092-0.121,0.142  c-0.142,0.174-0.275,0.345-0.393,0.511l0.032-0.015c-0.939,1.285-1.707,2.809-2.18,4.654c-1.52,4.786,0.112,15.48,9.115,18.852  c0.399,0.131,2.14,0.642,4.755,0.642h23.466h1.192c0.854-0.034,2.903-0.312,4.87-2.067c0,0,0-0.002,0.003-0.003l18.349-16.41  l0.527-0.47C65.436,31.232,62.659,31.143,62.659,31.143z M56.388,35.707L43.491,47.426c-2.001,1.816-4.122,2.136-5.067,2.181H13.849  c-1.928,0-3.959-0.713-4.142-0.778c-0.6-0.29-1.233-0.632-1.872-1.043c-7.04-4.507-4.927-13.113-4.584-14.341  c0.008-0.021,0.012-0.04,0.019-0.061c0.016-0.06,0.029-0.1,0.029-0.1H3.296C4.811,28.491,8.378,25,15.092,24.797  c0.839,0.016,3.268,0.213,5.429,1.851c0.532,0.436,1.063,0.943,1.584,1.559c1.03,1.331,3.421,5.207,2.332,9.687  c-0.878,2.937-2.15,4.207-3.904,5.388c-1.756,1.182-5.237,2.271-8.508,0.272c-1.905-1.303-3.358-3.541-3.087-6.509  c0.273-2.968,3.331-5.116,6.054-4.48c2.725,0.635,4.33,4.722,1.392,6.357c-1.384,0.588-2.22,0.239-2.768-0.51l-0.001,0.003  c0,0-0.788-0.734-1.787-0.281c-0.99,0.451-0.672,1.859-0.667,1.882c1.079,1.586,3.152,2.774,6.26,1.677  c0.716-0.253,1.299-0.648,1.784-1.124l0.007,0.001c0,0,0.048-0.05,0.114-0.12c0.105-0.11,0.205-0.226,0.3-0.346  c1.07-1.318,3.581-5.282-0.414-9.763c-2.33-1.865-9.543-3.871-12.557,4.172c-0.112,0.265-0.212,0.538-0.299,0.826  c-0.014,0.041-0.029,0.074-0.043,0.115c0.003,0.002,0.003,0,0.005,0.002c-0.529,1.821-0.527,4.046,0.562,6.523  c2.422,5.51,9.413,6.991,14.499,4.268c0.922-0.494,1.756-1.104,2.497-1.805l-0.004,0.006l12.29-9.64c0,0,0.859-0.776,2.177-0.776  h18.024C58.117,34.032,56.595,35.512,56.388,35.707z" fill="#241F20"/></svg>