<svg width="22" height="18" viewBox="0 0 22 18" fill="none" xmlns="http://www.w3.org/2000/svg">
<path fill-rule="evenodd" clip-rule="evenodd" d="M4.12516 6.75208C3.6187 6.75208 3.2085 7.08771 3.2085 7.50208V10.5021C3.2085 10.9161 3.6187 11.2521 4.12516 11.2521H6.93245C7.91099 12.1091 8.65435 12.7342 9.16254 13.1273C9.64765 13.5026 9.78532 13.5026 9.86141 13.5026C10.377 13.5026 10.5418 13.1665 10.5418 12.7521V5.25208C10.5418 4.83808 10.376 4.50208 9.86141 4.50208C9.77486 4.50208 9.64956 4.45086 9.18215 4.85659C8.89837 5.10291 8.13901 5.73474 6.90404 6.75208H4.12516ZM15.5049 15.375C17.9753 14.3512 19.7087 11.967 19.7087 9.1875C19.7087 6.40875 17.9753 4.02375 15.5049 3V4.22738C17.2997 5.217 18.507 7.068 18.507 9.1875C18.507 11.307 17.2997 13.1573 15.5049 14.1484V15.375ZM12.8021 6.10312C13.8879 6.79537 14.6034 7.97475 14.6034 9.312C14.6034 10.65 13.8879 11.8286 12.8021 12.5216V13.3785C14.5566 12.7369 15.8056 11.1019 15.8056 9.1875C15.8056 7.27238 14.5566 5.63813 12.8021 4.9965V6.10312Z" fill="black"/>
</svg>
