<svg width="22" height="18" viewBox="0 0 22 18" fill="none" xmlns="http://www.w3.org/2000/svg">
<path d="M21.6113 4.73649H21.5917C21.2149 4.73846 21.1565 4.47071 21.15 4.3464V2.40212C21.15 2.19455 20.9444 2.02637 20.6914 2.02637H13.8972C12.1925 2.02637 11.5566 2.5433 11.3988 2.70559L11.3555 2.7548L11.3551 2.75565L11.2207 2.9064C11.0403 3.10918 10.8828 3.02284 10.8072 2.95646L10.5501 2.69405L10.4229 2.56862C10.2091 2.38496 9.65186 2.02637 8.54739 2.02637H1.30905C1.05536 2.02637 0.849797 2.19455 0.849797 2.40212V4.32165C0.849797 4.65774 0.626703 4.72524 0.489891 4.73649H0.388141C0.276766 4.74212 0.0175781 4.79499 0.0175781 5.18509V14.3339C0.0175781 14.5583 0.239984 14.74 0.514297 14.74H7.12048C9.22802 14.74 10.1465 15.3902 10.4219 15.6397L10.579 15.7989C10.579 15.7989 11.0007 16.189 11.4449 15.7989L11.537 15.7106L11.5384 15.71L11.6559 15.5975C11.6594 15.5941 11.6875 15.5683 11.7285 15.534C12.0801 15.2541 12.9591 14.74 14.6778 14.74H21.4858C21.7605 14.74 21.9825 14.5583 21.9825 14.3339V5.09649C21.9825 4.76574 21.69 4.73818 21.6113 4.73649ZM20.127 12.8984C20.127 13.0786 19.943 13.2241 19.7141 13.2241H14.1127C12.1193 13.2241 11.3957 13.9609 11.3957 13.9609L11.3039 14.0616L11.261 14.1103C11.0709 14.3215 10.791 14.112 10.7897 14.1108L10.6608 13.9789C10.5652 13.885 9.83302 13.2238 8.06098 13.2238H2.28598C2.05808 13.2238 1.87383 13.0781 1.87383 12.8981V3.1494C1.87383 2.9694 2.05808 2.82371 2.28598 2.82371H6.76952C10.1046 2.82371 10.4205 4.37368 10.4421 4.82396V11.6038C10.4421 12.0965 10.7292 12.1891 10.8911 12.2026H11.132C11.297 12.1891 11.5593 12.1089 11.5593 11.7244V4.73649H11.5566C11.5813 4.17259 11.8501 2.82343 13.8559 2.82343H19.7141C19.943 2.82343 20.127 2.96912 20.127 3.14912V12.8984Z" fill="#241F20"/>
</svg>
