<svg width="22" height="18" viewBox="0 0 22 18" fill="none" xmlns="http://www.w3.org/2000/svg">
<path d="M21.5391 8.75856H21.1094H14.3179C14.068 8.75856 14.3179 8.56956 14.3179 8.56956L14.3152 8.56872C14.4293 8.48294 14.519 8.40334 14.584 8.34344C15.7366 7.09862 14.7541 5.24547 14.6032 4.9794C14.0646 4.204 13.4094 3.7779 12.7514 3.56078C12.7006 3.54531 12.6511 3.53097 12.5916 3.51072C12.2953 3.421 11.9495 3.33522 11.5672 3.27081C9.89385 3.06606 8.30813 3.70703 8.29438 3.71265C6.84788 4.38822 3.15772 6.16459 1.51013 7.45215C1.42969 7.51375 1.35063 7.57787 1.27397 7.64537C1.21347 7.69769 1.15778 7.74859 1.10553 7.79837C1.09178 7.81215 1.077 7.82425 1.06394 7.83831C1.01513 7.88725 0.969407 7.93534 0.928845 7.98203L0.939845 7.97781C0.617064 8.33922 0.353064 8.76784 0.19047 9.28675C-0.33203 10.6328 0.22897 13.6405 3.32375 14.5889C3.46091 14.6257 4.05938 14.7694 4.95828 14.7694H13.0247H13.4345C13.728 14.7599 14.4324 14.6817 15.1085 14.1881C15.1085 14.1881 15.1085 14.1875 15.1096 14.1872L21.417 9.57194L21.5982 9.43975C22.4937 8.78359 21.5391 8.75856 21.5391 8.75856ZM19.3834 10.0422L14.9501 13.3382C14.2622 13.8489 13.5331 13.9389 13.2083 13.9516H4.76063C4.09788 13.9516 3.39972 13.751 3.33681 13.7327C3.13056 13.6512 2.91297 13.555 2.69331 13.4394C0.273314 12.1718 0.999657 9.75137 1.11756 9.406C1.12031 9.40009 1.12169 9.39475 1.12409 9.38884C1.12959 9.37197 1.13406 9.36072 1.13406 9.36072H1.13303C1.65381 8.01269 2.87997 7.03084 5.18791 6.97375C5.47631 6.97825 6.31128 7.03365 7.05413 7.49434C7.237 7.61697 7.41953 7.75956 7.59863 7.93281C7.95269 8.30715 8.77459 9.39728 8.40025 10.6573C8.09844 11.4833 7.66119 11.8405 7.05825 12.1727C6.45463 12.5051 5.25803 12.8114 4.13363 12.2492C3.47878 11.8827 2.97931 11.2532 3.07247 10.4185C3.16631 9.58375 4.2175 8.97962 5.15353 9.1585C6.09025 9.33709 6.64197 10.4866 5.63203 10.9464C5.15628 11.1118 4.86891 11.0136 4.68053 10.803L4.68019 10.8038C4.68019 10.8038 4.40931 10.5974 4.06591 10.7248C3.72559 10.8516 3.83491 11.2476 3.83663 11.2541C4.20753 11.7002 4.92013 12.0343 5.9885 11.7257C6.23463 11.6546 6.43503 11.5435 6.60175 11.4096L6.60416 11.4099C6.60416 11.4099 6.62066 11.3958 6.64334 11.3762C6.67944 11.3452 6.71381 11.3126 6.74647 11.2788C7.11428 10.9082 7.97744 9.79328 6.60416 8.533C5.80322 8.00847 3.32375 7.44428 2.28769 9.70637C2.24919 9.7809 2.21481 9.85769 2.18491 9.93869C2.18009 9.95022 2.17494 9.9595 2.17013 9.97103C2.17116 9.97159 2.17116 9.97103 2.17184 9.97159C1.99 10.4837 1.99069 11.1095 2.36503 11.8062C3.19759 13.3559 5.60075 13.7724 7.34906 13.0066C7.666 12.8676 7.95269 12.6961 8.20741 12.4989L8.20603 12.5006L12.4307 9.78934C12.4307 9.78934 12.726 9.57109 13.1791 9.57109H19.3748C19.9778 9.57109 19.4546 9.98734 19.3834 10.0422Z" fill="#241F20"/>
</svg>
